<svg width="12" height="12" viewBox="0 0 12 12" fill="none" xmlns="http://www.w3.org/2000/svg">
<path d="M2.40572 3.70901C3.10172 3.70901 3.69872 3.83501 4.19672 4.08701C4.69472 4.33901 5.07572 4.70201 5.33973 5.17601C5.60372 5.65001 5.73572 6.21401 5.73572 6.86801C5.73572 7.51601 5.60372 8.07701 5.33973 8.55101C5.07572 9.01901 4.69472 9.37901 4.19672 9.63101C3.69872 9.87701 3.10172 10 2.40572 10H0.542725V3.70901H2.40572ZM2.40572 9.47801C3.28172 9.47801 3.94772 9.25001 4.40372 8.79401C4.86572 8.33201 5.09672 7.69001 5.09672 6.86801C5.09672 6.04001 4.86572 5.39501 4.40372 4.93301C3.94772 4.46501 3.28172 4.23101 2.40572 4.23101H1.17272V9.47801H2.40572Z" fill="#EB9030"/>
<path d="M2.40572 3.70901C3.10172 3.70901 3.69872 3.83501 4.19672 4.08701C4.69472 4.33901 5.07572 4.70201 5.33973 5.17601C5.60372 5.65001 5.73572 6.21401 5.73572 6.86801C5.73572 7.51601 5.60372 8.07701 5.33973 8.55101C5.07572 9.01901 4.69472 9.37901 4.19672 9.63101C3.69872 9.87701 3.10172 10 2.40572 10H0.542725V3.70901H2.40572ZM2.40572 9.47801C3.28172 9.47801 3.94772 9.25001 4.40372 8.79401C4.86572 8.33201 5.09672 7.69001 5.09672 6.86801C5.09672 6.04001 4.86572 5.39501 4.40372 4.93301C3.94772 4.46501 3.28172 4.23101 2.40572 4.23101H1.17272V9.47801H2.40572Z" fill="black" fill-opacity="0.2"/>
<path d="M10.2011 12L5.3531 6.83201V12H4.2331V0.81601H5.3531V6.04801L10.2011 0.81601H11.6251L6.3931 6.40001L11.6731 12H10.2011Z" fill="#6E21D2"/>
</svg>
